<?xml version="1.0" encoding="utf-8"?>
<!-- Generator: Adobe Illustrator 23.0.1, SVG Export Plug-In . SVG Version: 6.00 Build 0)  -->
<svg version="1.1" id="Layer_1" xmlns="http://www.w3.org/2000/svg" xmlns:xlink="http://www.w3.org/1999/xlink" x="0px" y="0px"
	 viewBox="0 0 64 64" style="enable-background:new 0 0 64 64;" xml:space="preserve">
<style type="text/css">
	.st0{fill:url(#SVGID_1_);}
	.st1{fill:url(#SVGID_2_);}
	.st2{fill:url(#SVGID_3_);}
	.st3{fill:url(#SVGID_4_);}
	.st4{fill:url(#SVGID_5_);}
	.st5{fill:url(#SVGID_6_);}
	.st6{fill:url(#SVGID_7_);}
	.st7{fill:url(#SVGID_8_);}
	.st8{fill:url(#SVGID_9_);}
	.st9{fill:url(#SVGID_10_);}
	.st10{fill:url(#SVGID_11_);}
</style>
<g>
	<g>
		<g>
			<linearGradient id="SVGID_1_" gradientUnits="userSpaceOnUse" x1="50.6655" y1="-14.3428" x2="-16.3112" y2="55.7252">
				<stop  offset="0" style="stop-color:#15DEE6"/>
				<stop  offset="1" style="stop-color:#088AD9"/>
			</linearGradient>
			<path class="st0" d="M21.86,16.66c-0.23,0-0.45-0.09-0.62-0.26c-0.16-0.16-0.26-0.38-0.26-0.62c0-0.23,0.09-0.45,0.26-0.62
				c0.33-0.33,0.91-0.32,1.23,0c0.16,0.16,0.26,0.39,0.26,0.62c0,0.23-0.09,0.45-0.26,0.62C22.32,16.57,22.09,16.66,21.86,16.66z"/>
		</g>
		<g>
			<linearGradient id="SVGID_2_" gradientUnits="userSpaceOnUse" x1="54.3439" y1="-10.8266" x2="-12.6327" y2="59.2414">
				<stop  offset="0" style="stop-color:#15DEE6"/>
				<stop  offset="1" style="stop-color:#088AD9"/>
			</linearGradient>
			<path class="st1" d="M28.03,15.79c0-0.48,0.39-0.87,0.87-0.87l0,0c0.48,0,0.88,0.39,0.88,0.87l0,0c0,0.48-0.4,0.87-0.88,0.87l0,0
				C28.42,16.66,28.03,16.27,28.03,15.79z"/>
		</g>
		<g>
			<linearGradient id="SVGID_3_" gradientUnits="userSpaceOnUse" x1="58.0196" y1="-7.3131" x2="-8.957" y2="62.7549">
				<stop  offset="0" style="stop-color:#15DEE6"/>
				<stop  offset="1" style="stop-color:#088AD9"/>
			</linearGradient>
			<path class="st2" d="M35.93,16.66c-0.23,0-0.45-0.09-0.62-0.26c-0.16-0.16-0.26-0.38-0.26-0.62c0-0.05,0.01-0.11,0.02-0.17
				c0.01-0.06,0.03-0.11,0.05-0.16c0.02-0.05,0.05-0.1,0.08-0.15c0.03-0.05,0.06-0.09,0.1-0.13c0.33-0.33,0.91-0.33,1.24,0
				c0.16,0.16,0.26,0.39,0.26,0.62c0,0.23-0.09,0.45-0.26,0.62C36.39,16.57,36.17,16.66,35.93,16.66z"/>
		</g>
	</g>
	<g>
		<linearGradient id="SVGID_4_" gradientUnits="userSpaceOnUse" x1="51.0875" y1="-13.9393" x2="-15.8892" y2="56.1287">
			<stop  offset="0" style="stop-color:#15DEE6"/>
			<stop  offset="1" style="stop-color:#088AD9"/>
		</linearGradient>
		<path class="st3" d="M61.13,3.69H9.01c-0.48,0-0.87-0.39-0.87-0.87s0.39-0.87,0.87-0.87h52.11c0.48,0,0.87,0.39,0.87,0.87
			S61.61,3.69,61.13,3.69z"/>
	</g>
	<g>
		<linearGradient id="SVGID_5_" gradientUnits="userSpaceOnUse" x1="77.7021" y1="11.5009" x2="10.7255" y2="81.5688">
			<stop  offset="0" style="stop-color:#15DEE6"/>
			<stop  offset="1" style="stop-color:#088AD9"/>
		</linearGradient>
		<path class="st4" d="M60.85,55.63H11.86c-0.48,0-0.87-0.39-0.87-0.87c0-0.48,0.39-0.87,0.87-0.87h48.99
			c0.48,0,0.87,0.39,0.87,0.87C61.73,55.24,61.34,55.63,60.85,55.63z"/>
	</g>
	<g>
		<linearGradient id="SVGID_6_" gradientUnits="userSpaceOnUse" x1="41.1771" y1="-23.4126" x2="-25.7996" y2="46.6555">
			<stop  offset="0" style="stop-color:#15DEE6"/>
			<stop  offset="1" style="stop-color:#088AD9"/>
		</linearGradient>
		<path class="st5" d="M11.86,18.01h-2.8C5.17,18.01,2,14.41,2,9.98c0-0.26,0.01-0.51,0.03-0.77C2.38,5.07,5.4,1.94,9.06,1.94
			c0.48,0,0.87,0.39,0.87,0.87S9.54,3.69,9.06,3.69c-2.75,0-5.02,2.44-5.29,5.66C3.75,9.56,3.74,9.77,3.74,9.98
			c0,3.47,2.38,6.29,5.32,6.29h2.8c0.48,0,0.87,0.39,0.87,0.87C12.73,17.62,12.34,18.01,11.86,18.01z"/>
	</g>
	<g>
		<linearGradient id="SVGID_7_" gradientUnits="userSpaceOnUse" x1="52.7434" y1="-12.3566" x2="-14.2334" y2="57.7115">
			<stop  offset="0" style="stop-color:#15DEE6"/>
			<stop  offset="1" style="stop-color:#088AD9"/>
		</linearGradient>
		<path class="st6" d="M11.86,61.13h-2.8C5.17,61.13,2,57.52,2,53.1V9.98C2,9.5,2.39,9.1,2.87,9.1c0.48,0,0.87,0.39,0.87,0.87
			c0,3.47,2.38,6.29,5.32,6.29h2.8c0.48,0,0.87,0.39,0.87,0.87v43.12C12.73,60.74,12.34,61.13,11.86,61.13z M3.74,15.26v37.84
			c0,3.47,2.38,6.29,5.32,6.29h1.93V18.01H9.06C6.94,18.01,5.04,16.94,3.74,15.26z"/>
	</g>
	<g>
		<linearGradient id="SVGID_8_" gradientUnits="userSpaceOnUse" x1="77.675" y1="11.4751" x2="10.6983" y2="81.5432">
			<stop  offset="0" style="stop-color:#15DEE6"/>
			<stop  offset="1" style="stop-color:#088AD9"/>
		</linearGradient>
		<path class="st7" d="M61.13,55.63c-0.48,0-0.87-0.39-0.87-0.87V2.82c0-0.48,0.39-0.87,0.87-0.87S62,2.34,62,2.82v51.94
			C62,55.24,61.61,55.63,61.13,55.63z"/>
	</g>
	<g>
		<linearGradient id="SVGID_9_" gradientUnits="userSpaceOnUse" x1="57.2655" y1="-8.0339" x2="-9.7112" y2="62.0342">
			<stop  offset="0" style="stop-color:#15DEE6"/>
			<stop  offset="1" style="stop-color:#088AD9"/>
		</linearGradient>
		<path class="st8" d="M51.31,20.37H17.67c-0.48,0-0.87-0.39-0.87-0.87v-7.42c0-0.48,0.39-0.87,0.87-0.87h33.65
			c0.48,0,0.87,0.39,0.87,0.87v7.42C52.19,19.98,51.8,20.37,51.31,20.37z M18.54,18.63h31.9v-5.67h-31.9V18.63z"/>
	</g>
	<g>
		<linearGradient id="SVGID_10_" gradientUnits="userSpaceOnUse" x1="65.3617" y1="-0.2949" x2="-1.6149" y2="69.7729">
			<stop  offset="0" style="stop-color:#15DEE6"/>
			<stop  offset="1" style="stop-color:#088AD9"/>
		</linearGradient>
		<path class="st9" d="M51.31,45.37H17.67c-0.48,0-0.87-0.39-0.87-0.87v-25c0-0.48,0.39-0.87,0.87-0.87h33.65
			c0.48,0,0.87,0.39,0.87,0.87v25C52.19,44.98,51.8,45.37,51.31,45.37z M18.54,43.63h31.9V20.37h-31.9V43.63z"/>
	</g>
	<g>
		<linearGradient id="SVGID_11_" gradientUnits="userSpaceOnUse" x1="65.313" y1="-0.3415" x2="-1.6638" y2="69.7266">
			<stop  offset="0" style="stop-color:#15DEE6"/>
			<stop  offset="1" style="stop-color:#088AD9"/>
		</linearGradient>
		<path class="st10" d="M30.9,38.29c-0.42-0.24-0.56-0.77-0.32-1.19l0,0c0.24-0.42,0.77-0.56,1.19-0.32l0,0
			c0.42,0.24,0.56,0.77,0.32,1.19l0,0c-0.16,0.28-0.45,0.44-0.76,0.44l0,0C31.19,38.4,31.04,38.36,30.9,38.29z M37.3,37.96
			c-0.24-0.42-0.1-0.95,0.31-1.19l0,0c0.42-0.24,0.95-0.1,1.19,0.31l0,0c0.24,0.42,0.1,0.95-0.32,1.19l0,0
			c-0.13,0.08-0.29,0.12-0.43,0.12l0,0C37.75,38.39,37.46,38.24,37.3,37.96z M27.09,31.72c0-0.48,0.39-0.88,0.87-0.88l0,0
			c0.48,0,0.87,0.39,0.87,0.87l0,0c0,0.48-0.39,0.87-0.87,0.87l0,0C27.48,32.59,27.09,32.2,27.09,31.72z M40.54,31.7
			c0-0.01,0-0.01,0-0.02l0,0v-0.01l0,0c-0.01-0.48,0.38-0.88,0.87-0.88l0,0c0.48,0,0.87,0.38,0.87,0.87l0,0c0,0.01,0,0.02,0,0.02
			l0,0c0,0,0,0.01,0,0.01l0,0c0,0,0,0,0.01,0l0,0c0,0.48-0.4,0.87-0.87,0.87l0,0C40.93,32.58,40.54,32.19,40.54,31.7z M40.54,31.68
			L40.54,31.68L40.54,31.68L40.54,31.68L40.54,31.68z M30.55,26.33c-0.24-0.42-0.1-0.95,0.31-1.19l0,0c0.42-0.24,0.95-0.1,1.2,0.31
			l0,0c0.24,0.41,0.1,0.95-0.32,1.19l0,0c-0.13,0.08-0.28,0.12-0.44,0.12l0,0C31.01,26.76,30.72,26.61,30.55,26.33z M37.6,26.63
			c-0.42-0.24-0.56-0.77-0.33-1.19l0,0c0.24-0.42,0.77-0.56,1.19-0.32l0,0c0.42,0.24,0.56,0.77,0.32,1.19l0,0
			c-0.16,0.28-0.45,0.44-0.76,0.44l0,0C37.88,26.74,37.73,26.7,37.6,26.63z"/>
	</g>
</g>
</svg>
